<svg width="43" height="43" viewBox="0 0 43 43" fill="none" xmlns="http://www.w3.org/2000/svg">
<rect width="43" height="43" rx="21.5" fill="white" fill-opacity="0.27"/>
<path fill-rule="evenodd" clip-rule="evenodd" d="M16.1667 12.6876C15.5367 12.7145 15.084 12.774 14.6838 12.9093C13.9994 13.1384 13.3775 13.5232 12.867 14.0334C12.3565 14.5435 11.9712 15.1651 11.7415 15.8493C11.5 16.5738 11.5 17.4675 11.5 19.2571C11.5 19.368 11.5 19.424 11.5152 19.4683C11.5295 19.5112 11.5536 19.5502 11.5856 19.5822C11.6176 19.6142 11.6566 19.6383 11.6995 19.6526C11.7438 19.6678 11.7998 19.6678 11.9118 19.6678H32.0882C32.2002 19.6678 32.2562 19.6678 32.3005 19.6526C32.3434 19.6383 32.3824 19.6142 32.4144 19.5822C32.4464 19.5502 32.4705 19.5112 32.4848 19.4683C32.5 19.4228 32.5 19.3668 32.5 19.2548C32.5 17.4663 32.5 16.5715 32.2585 15.8505C32.0291 15.1658 31.644 14.5438 31.1334 14.0332C30.6229 13.5226 30.0008 13.1375 29.3162 12.9081C28.916 12.774 28.4622 12.7145 27.8333 12.6876V15.5833C27.8333 16.0474 27.649 16.4925 27.3208 16.8207C26.9926 17.1489 26.5475 17.3333 26.0833 17.3333C25.6192 17.3333 25.1741 17.1489 24.8459 16.8207C24.5177 16.4925 24.3333 16.0474 24.3333 15.5833V12.6666H19.6667V15.5833C19.6667 16.0474 19.4823 16.4925 19.1541 16.8207C18.8259 17.1489 18.3808 17.3333 17.9167 17.3333C17.4525 17.3333 17.0074 17.1489 16.6792 16.8207C16.351 16.4925 16.1667 16.0474 16.1667 15.5833V12.6876Z" fill="black"/>
<path d="M11.5 21.4166C11.5 21.1413 11.5 21.0036 11.5852 20.9184C11.6703 20.8333 11.808 20.8333 12.0833 20.8333H31.9167C32.192 20.8333 32.3297 20.8333 32.4148 20.9184C32.5 21.0036 32.5 21.1413 32.5 21.4166V21.9999C32.5 26.3994 32.5 28.5998 31.1327 29.9659C29.7653 31.3321 27.5662 31.3333 23.1667 31.3333H20.8333C16.4338 31.3333 14.2335 31.3333 12.8673 29.9659C11.5012 28.5986 11.5 26.3994 11.5 21.9999V21.4166Z" fill="black" fill-opacity="0.25"/>
<path d="M17.9165 10.9166V15.5833M26.0832 10.9166V15.5833" stroke="black" stroke-linecap="round"/>
</svg>
