<svg width="188" height="151" viewBox="0 0 188 151" fill="none" xmlns="http://www.w3.org/2000/svg">
<path d="M61.9101 8.78728C87.7046 4.60391 113.437 28.3823 118.978 62.5459C124.518 96.7093 107.62 127.401 81.8254 131.584C56.0312 135.767 30.2995 111.99 24.7587 77.8264C19.2181 43.663 36.1158 12.9709 61.9101 8.78728Z" stroke="#4D4B4B" stroke-width="2"/>
<path d="M66.0226 22.2558C75.4679 20.7241 84.9352 24.4846 92.6177 31.9622C100.3 39.4398 106.141 50.5915 108.26 63.656C110.378 76.7208 108.362 89.1474 103.436 98.6697C98.511 108.192 90.7175 114.752 81.2722 116.284C71.8267 117.816 62.3587 114.055 54.6761 106.578C46.9936 99.1001 41.153 87.9477 39.0341 74.883C36.9154 61.8185 38.9321 49.3925 43.8574 39.8702C48.7829 30.3477 56.5771 23.7877 66.0226 22.2558Z" stroke="#4D4B4B" stroke-width="2"/>
<path d="M73.2103 46.5802C77.7808 45.839 82.4029 47.6506 86.1922 51.3387C89.9815 55.0269 92.881 60.5494 93.9338 67.0412C94.9865 73.5327 93.981 79.6879 91.5516 84.3845C89.1222 89.0812 85.3095 92.2608 80.739 93.002C76.1685 93.7432 71.5464 91.9318 67.757 88.2435C63.9679 84.5554 61.0685 79.0336 60.0156 72.542C58.9628 66.0503 59.9683 59.8945 62.3977 55.1978C64.8271 50.501 68.6398 47.3216 73.2103 46.5802Z" fill="#4D4B4B" stroke="#4D4B4B" stroke-width="2"/>
<path d="M35.1997 125.171C68.031 156.772 104.556 138.304 112.354 118.4C108.881 138.254 85.3547 149.518 65.7738 150C44.2281 150 17.3473 132.148 9.96011 115.937C-17.2241 56.2834 24.1874 14.2963 44.844 8.41406C6.06153 26.6766 -0.0862598 91.2085 35.1997 125.171Z" fill="#4D4B4B" stroke="#4D4B4B" stroke-width="2" stroke-linecap="round"/>
<path d="M76.6494 64.4321L135.131 27.0415L146.827 19.6991" stroke="#4D4B4B" stroke-width="2" stroke-linecap="round"/>
<path d="M133.694 24.0088L135.053 14.6896C135.101 14.3583 135.312 14.0732 135.615 13.93L159.04 2.84309C159.933 2.42043 160.833 3.41101 160.327 4.25942L155.23 12.8003C154.853 13.4312 155.263 14.2391 155.994 14.3083L166.799 15.3304C167.737 15.4191 168.043 16.6358 167.26 17.158L147.227 30.5132C146.974 30.682 146.658 30.7263 146.368 30.6337L135.13 27.0421" stroke="#4D4B4B" stroke-width="2" stroke-linecap="round"/>
<path d="M78.9067 68.7419L152.114 42.5222L165.104 37.8352" stroke="#4D4B4B" stroke-width="2" stroke-linecap="round"/>
<path d="M151.355 39.2525L154.665 30.4355C154.783 30.1221 155.049 29.8884 155.375 29.8128L180.623 23.9615C181.585 23.7384 182.254 24.8977 181.579 25.619L174.782 32.8806C174.28 33.417 174.508 34.2935 175.208 34.5167L185.549 37.8133C186.446 38.0993 186.487 39.3534 185.61 39.6971L163.195 48.4863C162.912 48.5974 162.594 48.5734 162.33 48.4213L152.113 42.5219" stroke="#4D4B4B" stroke-width="2" stroke-linecap="round"/>
<path d="M136.04 60.3134L140.451 52.9618C140.623 52.6763 140.925 52.4947 141.257 52.4776L164.196 51.2993C165.182 51.2487 165.637 52.5062 164.847 53.0983L157.928 58.2818C157.344 58.7196 157.411 59.6157 158.053 59.9622L166.288 64.4035C167.111 64.8478 166.928 66.0791 166.01 66.2639L144.977 70.5003C144.674 70.5614 144.359 70.4785 144.125 70.276L136.151 63.3721" stroke="#4D4B4B" stroke-width="2" stroke-linecap="round"/>
<path d="M80.1378 73.0497L136.151 63.3707L148.43 61.2487" stroke="#4D4B4B" stroke-width="2" stroke-linecap="round"/>
</svg>
