<svg width="16" height="16" viewBox="0 0 16 16" fill="none" xmlns="http://www.w3.org/2000/svg">
<path d="M5.32118 0.433474C3.72253 0.98806 2.34386 2.04068 1.38767 3.43673C0.431478 4.83277 -0.0518311 6.49865 0.00873254 8.18968C0.0692962 9.88071 0.67054 11.5077 1.72415 12.8318C2.77776 14.1559 4.2282 15.1072 5.86243 15.546C7.18733 15.8878 8.57544 15.9029 9.90743 15.5897C11.1141 15.3187 12.2297 14.7389 13.1449 13.9072C14.0975 13.0152 14.789 11.8803 15.1449 10.6247C15.5318 9.25931 15.6007 7.82339 15.3462 6.42722H7.90618V9.51347H12.2149C12.1288 10.0057 11.9443 10.4755 11.6724 10.8948C11.4005 11.314 11.0468 11.6741 10.6324 11.9535C10.1063 12.3015 9.51317 12.5357 8.89118 12.641C8.26736 12.757 7.6275 12.757 7.00368 12.641C6.37142 12.5103 5.7733 12.2493 5.24743 11.8747C4.40262 11.2767 3.76828 10.4271 3.43493 9.44722C3.09595 8.44897 3.09595 7.36673 3.43493 6.36847C3.67221 5.66874 4.06447 5.03164 4.58243 4.50472C5.17517 3.89066 5.92559 3.45172 6.75137 3.23607C7.57715 3.02042 8.44638 3.03639 9.26368 3.28222C9.90214 3.47821 10.486 3.82065 10.9687 4.28222C11.4545 3.79889 11.9395 3.31431 12.4237 2.82847C12.6737 2.56722 12.9462 2.31847 13.1924 2.05097C12.4556 1.36532 11.5908 0.831795 10.6474 0.480974C8.92956 -0.142788 7.0499 -0.159552 5.32118 0.433474Z" fill="white"/>
<path d="M5.32116 0.433471C7.04974 -0.159957 8.92939 -0.143636 10.6474 0.479721C11.5909 0.832926 12.4554 1.36902 13.1912 2.05722C12.9412 2.32472 12.6774 2.57472 12.4224 2.83472C11.9374 3.31889 11.4528 3.80139 10.9687 4.28222C10.486 3.82064 9.90212 3.47821 9.26366 3.28222C8.44663 3.03552 7.57743 3.01863 6.75143 3.2334C5.92543 3.44817 5.17455 3.8863 4.58116 4.49972C4.0632 5.02664 3.67094 5.66374 3.43366 6.36347L0.842407 4.35722C1.76992 2.51792 3.37584 1.111 5.32116 0.433471Z" fill="#E33629"/>
<path d="M0.154996 6.34468C0.294273 5.65442 0.525501 4.98596 0.842496 4.35718L3.43375 6.36843C3.09476 7.36669 3.09476 8.44892 3.43375 9.44718C2.57041 10.1138 1.70666 10.7838 0.842496 11.4572C0.0489348 9.87757 -0.193088 8.07781 0.154996 6.34468Z" fill="#F8BD00"/>
<path d="M7.9062 6.42603H15.3462C15.6007 7.82219 15.5318 9.25811 15.1449 10.6235C14.789 11.8791 14.0975 13.014 13.1449 13.906C12.3087 13.2535 11.4687 12.606 10.6324 11.9535C11.047 11.6739 11.4009 11.3134 11.6728 10.8937C11.9448 10.474 12.1291 10.0037 12.2149 9.51103H7.9062C7.90495 8.48353 7.9062 7.45478 7.9062 6.42603Z" fill="#587DBD"/>
<path d="M0.841187 11.4573C1.70535 10.7906 2.5691 10.1206 3.43244 9.44727C3.76645 10.4275 4.40169 11.2771 5.24744 11.8748C5.77495 12.2476 6.37435 12.5064 7.00744 12.6348C7.63126 12.7508 8.27112 12.7508 8.89494 12.6348C9.51693 12.5295 10.11 12.2953 10.6362 11.9473C11.4724 12.5998 12.3124 13.2473 13.1487 13.8998C12.2336 14.7319 11.118 15.3121 9.91119 15.5835C8.5792 15.8966 7.19109 15.8816 5.86619 15.5398C4.81831 15.26 3.83953 14.7668 2.99119 14.091C2.09326 13.3781 1.35988 12.4797 0.841187 11.4573Z" fill="#319F43"/>
</svg>
