<svg width="35" height="35" viewBox="0 0 35 35" fill="none" xmlns="http://www.w3.org/2000/svg">
<path d="M30.625 29.1667C30.625 29.5535 30.4714 29.9244 30.1979 30.1979C29.9244 30.4714 29.5534 30.625 29.1667 30.625H5.83333C5.44656 30.625 5.07563 30.4714 4.80214 30.1979C4.52865 29.9244 4.375 29.5535 4.375 29.1667V13.8396C4.37485 13.6174 4.42548 13.398 4.52304 13.1984C4.6206 12.9987 4.76251 12.824 4.93792 12.6875L16.6046 3.61232C16.8606 3.41317 17.1757 3.30505 17.5 3.30505C17.8243 3.30505 18.1394 3.41317 18.3954 3.61232L30.0621 12.6875C30.2375 12.824 30.3794 12.9987 30.477 13.1984C30.5745 13.398 30.6252 13.6174 30.625 13.8396V29.1667Z" fill="#7C3ABA"/>
</svg>
