<svg width="43" height="43" viewBox="0 0 43 43" fill="none" xmlns="http://www.w3.org/2000/svg">
<rect width="43" height="43" rx="21.5" fill="white" fill-opacity="0.27"/>
<path d="M22.0002 12C20.1437 12 18.3632 12.7375 17.0504 14.0503C15.7377 15.363 15.0002 17.1435 15.0002 19V22.528C15.0003 22.6831 14.9644 22.8362 14.8952 22.975L13.1782 26.408C13.0943 26.5757 13.0547 26.7621 13.0631 26.9494C13.0715 27.1368 13.1277 27.3188 13.2263 27.4783C13.3249 27.6379 13.4626 27.7695 13.6264 27.8608C13.7902 27.9521 13.9747 28 14.1622 28H29.8382C30.0257 28 30.2101 27.9521 30.3739 27.8608C30.5377 27.7695 30.6754 27.6379 30.774 27.4783C30.8726 27.3188 30.9288 27.1368 30.9372 26.9494C30.9457 26.7621 30.906 26.5757 30.8222 26.408L29.1062 22.975C29.0366 22.8362 29.0003 22.6832 29.0002 22.528V19C29.0002 17.1435 28.2627 15.363 26.9499 14.0503C25.6372 12.7375 23.8567 12 22.0002 12ZM22.0002 31C21.3795 31.0003 20.774 30.8081 20.2672 30.4499C19.7603 30.0917 19.3771 29.5852 19.1702 29H24.8302C24.6233 29.5852 24.24 30.0917 23.7332 30.4499C23.2263 30.8081 22.6208 31.0003 22.0002 31Z" fill="black"/>
</svg>
