<svg width="288" height="205" viewBox="0 0 288 205" fill="none" xmlns="http://www.w3.org/2000/svg">
<g clip-path="url(#clip0_125_203)">
<path fill-rule="evenodd" clip-rule="evenodd" d="M126.302 175.042C126.302 176.788 125.669 178.461 124.544 179.696C123.418 180.93 121.891 181.623 120.299 181.623C118.707 181.623 117.181 180.93 116.055 179.696C114.929 178.461 114.297 176.788 114.297 175.042C114.297 174.178 114.452 173.322 114.754 172.524C115.055 171.726 115.498 171 116.055 170.389C116.612 169.778 117.274 169.293 118.002 168.963C118.731 168.632 119.511 168.462 120.299 168.462C121.088 168.462 121.868 168.632 122.596 168.963C123.325 169.293 123.986 169.778 124.544 170.389C125.101 171 125.543 171.726 125.845 172.524C126.147 173.322 126.302 174.178 126.302 175.042Z" fill="#4D4B4B"/>
<path d="M202.77 194.591C195.167 194.845 96.3741 197.021 78.377 196.44C78.1236 196.432 77.8769 196.522 77.689 196.692C77.5011 196.861 77.3866 197.096 77.3698 197.348C77.3698 197.348 77.2405 199.079 77.7113 200.893C77.9467 201.8 78.3322 202.757 79.0393 203.543C79.7465 204.329 80.8205 204.899 82.1297 204.925C83.2671 204.948 90.3325 204.966 100.459 204.979C110.585 204.993 123.713 205 136.778 205C149.844 205 162.847 204.993 172.725 204.974C177.664 204.965 181.822 204.952 184.817 204.937C186.314 204.929 187.521 204.921 188.391 204.912C189.261 204.903 189.709 204.901 189.99 204.88C190.767 204.82 191.935 204.531 193.513 204.113C195.091 203.695 196.999 203.147 198.922 202.568C202.768 201.412 206.615 200.164 208.102 199.561C208.81 199.274 209.418 198.888 209.832 198.297C210.039 198.001 210.197 197.634 210.207 197.218C210.216 196.802 210.052 196.369 209.789 196.046C209.261 195.401 208.464 195.08 207.344 194.852C206.225 194.625 204.745 194.524 202.77 194.591ZM202.835 196.535C204.709 196.472 206.062 196.576 206.954 196.757C207.77 196.923 208.073 197.155 208.161 197.23C208.05 197.36 207.788 197.588 207.364 197.759C206.111 198.267 202.173 199.558 198.357 200.706C196.449 201.279 194.556 201.824 193.011 202.233C191.466 202.642 190.187 202.913 189.84 202.94C189.84 202.94 189.233 202.958 188.37 202.967C187.507 202.976 186.303 202.984 184.807 202.992C181.816 203.007 177.66 203.019 172.722 203.029C162.846 203.047 149.843 203.055 136.778 203.055C123.713 203.055 110.586 203.048 100.461 203.034C90.3359 203.021 83.1518 203 82.1701 202.98C81.3601 202.963 80.8998 202.694 80.4961 202.246C80.0925 201.797 79.7907 201.124 79.6046 200.407C79.4146 199.675 79.3462 198.942 79.3231 198.385C99.0425 198.919 195.117 196.793 202.835 196.535Z" fill="#4D4B4B"/>
<path fill-rule="evenodd" clip-rule="evenodd" d="M78.345 197.413C78.345 197.413 77.912 203.866 82.1503 203.952C86.3887 204.039 187.666 204.081 189.915 203.91C192.164 203.737 204.993 199.771 207.733 198.661C210.068 197.714 210.501 195.305 202.803 195.563C195.105 195.821 96.5348 197.999 78.345 197.413Z" fill="#4D4B4B"/>
<path d="M163.113 144.629C161.607 144.629 142.883 144.844 123.935 145.059C104.987 145.274 85.8425 145.49 83.9687 145.49C82.0678 145.49 80.7456 145.244 79.4805 145.912C78.848 146.246 78.3581 146.844 78.0445 147.581C77.7309 148.318 77.5359 149.216 77.3646 150.412C77.1664 151.796 77.1065 155.199 77.0766 159.817C77.0467 164.436 77.0695 170.151 77.1125 175.723C77.1986 186.865 77.3679 197.428 77.3679 197.428C77.3699 197.556 77.3971 197.682 77.4481 197.799C77.4991 197.917 77.5728 198.023 77.665 198.112C77.7572 198.201 77.8661 198.271 77.9855 198.318C78.1049 198.365 78.2325 198.388 78.3609 198.386C78.62 198.381 78.8669 198.275 79.0471 198.09C79.2274 197.905 79.3263 197.656 79.3223 197.398C79.3223 197.398 79.154 186.841 79.068 175.709C79.025 170.142 79.0022 164.431 79.032 159.829C79.0618 155.227 79.1674 151.615 79.3005 150.687C79.4605 149.57 79.6479 148.802 79.845 148.338C80.0421 147.875 80.1911 147.74 80.3982 147.631C80.8125 147.412 81.9772 147.435 83.9687 147.435C85.9874 147.435 105.009 147.22 123.958 147.004C142.906 146.789 161.808 146.574 163.113 146.574C164.355 146.574 164.792 146.784 165.149 147.321C165.507 147.859 165.76 149.023 165.813 150.899C165.909 154.358 164.343 190.095 163.233 196.257C163.21 196.383 163.213 196.512 163.24 196.636C163.268 196.761 163.32 196.879 163.393 196.984C163.466 197.089 163.56 197.179 163.668 197.247C163.776 197.316 163.897 197.363 164.023 197.386C164.278 197.431 164.541 197.374 164.754 197.227C164.967 197.08 165.112 196.855 165.158 196.601C166.429 189.545 167.886 155.131 167.767 150.845C167.711 148.849 167.532 147.378 166.781 146.248C166.03 145.118 164.681 144.629 163.113 144.629Z" fill="#4D4B4B"/>
<path d="M101.016 49.5119C99.6962 49.4285 98.3246 49.5023 96.9073 49.7355C96.6514 49.7775 96.4229 49.9189 96.2718 50.1286C96.1208 50.3383 96.0597 50.5991 96.1019 50.8536C96.1442 51.1081 96.2863 51.3355 96.4971 51.4857C96.7079 51.636 96.9701 51.6968 97.2259 51.6547C102.377 50.8075 106.472 52.1619 109.92 55.7712C110.009 55.8638 110.115 55.9381 110.232 55.99C110.349 56.0419 110.476 56.0702 110.604 56.0734C110.733 56.0767 110.86 56.0547 110.98 56.0088C111.1 55.9629 111.21 55.8939 111.303 55.8059C111.49 55.6282 111.599 55.3836 111.606 55.1259C111.613 54.8682 111.516 54.6185 111.338 54.4316C108.466 51.4252 104.974 49.7618 101.016 49.5119Z" fill="#4D4B4B"/>
<path d="M124.536 56.0708C122.565 56.0073 120.724 56.602 119.075 57.6383C118.856 57.7761 118.701 57.9948 118.644 58.2465C118.587 58.4981 118.632 58.762 118.771 58.9801C118.909 59.1981 119.129 59.3526 119.382 59.4094C119.635 59.4662 119.9 59.4207 120.119 59.2829C121.978 58.1146 123.846 57.6778 126.058 58.2451C126.182 58.2772 126.312 58.2845 126.439 58.2668C126.566 58.249 126.688 58.2065 126.799 58.1417C126.91 58.0769 127.006 57.991 127.084 57.889C127.161 57.787 127.217 57.6708 127.25 57.5471C127.282 57.4234 127.289 57.2946 127.271 57.168C127.253 57.0414 127.21 56.9196 127.145 56.8095C127.08 56.6994 126.993 56.6032 126.891 56.5264C126.788 56.4495 126.671 56.3936 126.547 56.3617C125.864 56.1865 125.192 56.0919 124.536 56.0708Z" fill="#4D4B4B"/>
<path d="M97.1123 0.0204357C93.6083 0.21131 90.2091 1.75063 87.9111 4.77733C85.8217 7.52927 84.7492 11.5205 85.0892 16.6327C83.9832 16.2733 82.448 15.8657 80.4144 15.749C77.0037 15.5533 72.6966 16.408 69.8492 20.4549C66.5832 25.0957 65.1989 31.3473 64.8034 36.2996C64.8034 36.3 64.8034 36.3004 64.8034 36.3007C64.6697 37.9772 64.1331 42.6852 64.3014 47.9194C64.4697 53.1536 65.2972 58.9713 68.1272 63.0846C69.9008 65.6624 72.6173 66.3825 74.9921 66.0579C77.367 65.7333 79.4783 64.5322 80.7232 63.1964C81.3377 62.5368 81.7812 61.8718 81.5711 61.0416C81.466 60.6264 81.1762 60.3049 80.8989 60.1178C80.6216 59.9306 80.3442 59.8332 80.0663 59.7595C78.9546 59.4648 77.62 59.5191 77.0251 59.4393C75.6384 59.2536 74.302 58.0197 73.6325 56.3292C72.9629 54.6386 72.9853 52.617 74.0908 50.9904C75.2001 49.3581 76.51 49.1285 77.8882 49.4251C79.2664 49.7216 80.6124 50.7604 81.0822 51.556C81.5593 52.3642 81.8124 53.9956 81.9432 55.5791C82.0086 56.3708 82.0571 57.1521 82.1407 57.8533C82.2244 58.5546 82.3043 59.1619 82.6285 59.7454C83.1595 60.7012 84.2146 61.4661 85.458 61.2641C86.7015 61.0621 87.687 59.9156 88.2177 58.0064C89.2175 54.4097 91.0696 43.5207 98.7011 39.1481C101.774 42.1592 105.046 44.1166 108.525 44.7908C112.023 45.4685 115.679 44.8249 119.397 42.9801C123.185 46.7909 126.579 49.0599 129.619 50.0058C132.795 50.9945 135.632 50.5091 137.794 48.9572C142.119 45.8535 143.835 39.0369 143.375 31.9564C142.915 24.8758 140.206 17.4038 134.882 12.9385C129.761 8.64413 122.178 7.43617 112.583 12.081C110.878 4.13474 103.767 -0.342042 97.1123 0.0204357ZM97.2193 1.96358C103.236 1.63585 109.905 5.82301 110.937 13.5888C110.958 13.7441 111.016 13.8922 111.106 14.0204C111.197 14.1486 111.317 14.2531 111.457 14.325C111.597 14.397 111.753 14.4342 111.91 14.4336C112.068 14.433 112.223 14.3946 112.362 14.3215C122.042 9.24194 128.879 10.4488 133.621 14.4257C138.364 18.4027 140.989 25.4113 141.423 32.0822C141.856 38.7532 140.024 44.9588 136.651 47.3799C134.964 48.5904 132.914 48.9931 130.204 48.1495C127.493 47.3059 124.157 45.1366 120.302 41.151C120.154 40.998 119.96 40.8973 119.749 40.8644C119.538 40.8315 119.322 40.8681 119.134 40.9686C115.491 42.9181 112.12 43.5056 108.899 42.8813C105.677 42.257 102.553 40.3959 99.5054 37.2419C99.3599 37.0914 99.1697 36.9916 98.9628 36.957C98.7558 36.9224 98.5432 36.9549 98.3563 37.0497C89.058 41.7785 87.2212 54.293 86.3332 57.4874C85.9074 59.0191 85.3695 59.3069 85.1427 59.3437C84.9159 59.3806 84.5538 59.1879 84.3406 58.8042C84.2927 58.718 84.1556 58.2413 84.082 57.6242C84.0084 57.0071 83.9596 56.2357 83.8921 55.4195C83.7573 53.7869 83.6029 51.9825 82.7693 50.5703C81.9278 49.1454 80.2627 47.9462 78.3018 47.5242C76.3409 47.1023 73.983 47.6745 72.4703 49.9005H72.4714C70.9549 52.1318 70.9418 54.8419 71.8134 57.0424C72.685 59.2429 74.4663 61.0594 76.7643 61.3672C77.6714 61.4889 78.8593 61.4908 79.4694 61.631C79.4175 61.7085 79.4077 61.7472 79.2894 61.8742C78.4302 62.796 76.5754 63.8783 74.7259 64.131C72.8764 64.3838 71.1098 63.9752 69.7412 61.986C67.3082 58.4498 66.4187 52.9227 66.2558 47.8575C66.0929 42.7923 66.6105 38.2466 66.7534 36.4538C67.13 31.7384 68.5166 25.7406 71.4511 21.5708C73.851 18.16 77.2848 17.518 80.302 17.6911C83.3193 17.8642 85.7374 18.9123 85.7374 18.9123C85.8953 18.981 86.0685 19.007 86.2397 18.9877C86.4108 18.9684 86.5738 18.9044 86.7122 18.8023C86.8505 18.7001 86.9593 18.5635 87.0274 18.4061C87.0956 18.2487 87.1208 18.0762 87.1004 17.906C86.4366 12.3851 87.5368 8.49811 89.4716 5.94973C91.4064 3.40135 94.211 2.12744 97.2193 1.96358Z" fill="#4D4B4B"/>
<path fill-rule="evenodd" clip-rule="evenodd" d="M87.925 55.11L82.4458 52.3538C82.3134 51.8736 82.1447 51.4345 81.9257 51.0632C80.6144 48.8428 75.9028 46.5868 73.2808 50.4452C70.6588 54.303 73.2098 59.9094 76.8945 60.4029C78.4276 60.6086 82.1095 60.2773 80.0059 62.5355C77.9018 64.7932 72.0762 67.1026 68.9341 62.5355C63.6711 54.886 65.5019 39.8466 65.7785 36.3772C66.1646 31.5434 67.5501 25.4179 70.6504 21.0126C75.8978 13.5548 86.1299 18.0213 86.1299 18.0213C83.3878 -4.78554 109.71 -3.06311 111.906 13.4609C151.555 -7.34557 151.007 74.3019 119.598 41.8258C112.006 45.8876 105.093 44.4281 98.8008 37.9157C91.6773 41.5384 89.1374 50.1923 87.925 55.11Z" fill="#4D4B4B"/>
<path d="M82.1405 51.4301C81.8942 51.5106 81.6901 51.6851 81.5731 51.9153C81.5151 52.0293 81.4803 52.1535 81.4706 52.2809C81.4609 52.4083 81.4765 52.5363 81.5165 52.6576C81.5565 52.779 81.6202 52.8913 81.7039 52.9882C81.7875 53.0851 81.8895 53.1647 82.0041 53.2223L95.1283 59.8225C95.2228 59.87 95.3246 59.9019 95.4294 59.9169L129.53 64.8074C129.657 64.8256 129.787 64.8188 129.911 64.7873C130.036 64.7558 130.153 64.7002 130.256 64.6237C130.358 64.5471 130.445 64.4512 130.511 64.3414C130.576 64.2315 130.619 64.1099 130.638 63.9834C130.656 63.857 130.649 63.7281 130.618 63.6043C130.586 63.4805 130.53 63.3641 130.453 63.2618C130.376 63.1595 130.28 63.0733 130.169 63.008C130.059 62.9428 129.937 62.8998 129.81 62.8816L95.867 58.0151L82.8869 51.4855C82.7723 51.4279 82.6473 51.3934 82.5192 51.3839C82.3912 51.3744 82.2625 51.3901 82.1405 51.4301Z" fill="#4D4B4B"/>
<path d="M95.5922 57.9597C95.464 57.9519 95.3355 57.9693 95.2141 58.0109C95.0927 58.0525 94.9807 58.1175 94.8845 58.2022C94.7883 58.2869 94.7099 58.3896 94.6536 58.5044C94.5974 58.6193 94.5644 58.744 94.5566 58.8716C94.2651 63.6661 94.9007 67.0946 96.2076 69.4014C97.5146 71.7083 99.626 72.8346 101.777 72.6961C106.08 72.4191 110.271 67.8659 111.588 61.3054C111.614 61.18 111.614 61.0509 111.589 60.9254C111.564 60.8 111.514 60.6806 111.443 60.5743C111.372 60.4679 111.28 60.3765 111.173 60.3055C111.066 60.2344 110.946 60.185 110.82 60.1601C110.694 60.1351 110.565 60.1351 110.439 60.16C110.313 60.1849 110.193 60.2342 110.086 60.3052C109.979 60.3761 109.887 60.4673 109.816 60.5736C109.745 60.6798 109.695 60.799 109.67 60.9243C108.479 66.856 104.554 70.5682 101.651 70.7551C100.199 70.8485 98.936 70.2554 97.911 68.4461C96.886 66.6369 96.2313 63.5523 96.5088 58.9888C96.5243 58.7314 96.4365 58.4785 96.2646 58.2855C96.0927 58.0925 95.8509 57.9753 95.5922 57.9597Z" fill="#4D4B4B"/>
<path d="M115.974 60.8993C115.719 60.8524 115.456 60.908 115.243 61.0539C115.029 61.1999 114.882 61.4242 114.835 61.6777C114.047 65.909 114.304 68.7871 115.457 70.678C116.61 72.5689 118.726 73.1777 120.741 72.8306C122.755 72.4835 124.807 71.3391 126.58 69.7911C128.352 68.2431 129.845 66.2816 130.592 64.1668C130.678 63.9235 130.663 63.6563 130.551 63.4238C130.439 63.1914 130.239 63.0127 129.994 62.9271C129.75 62.8417 129.481 62.8564 129.247 62.9679C129.014 63.0795 128.834 63.2788 128.748 63.522C128.149 65.2164 126.85 66.9666 125.29 68.3288C123.73 69.6911 121.908 70.655 120.408 70.9135C118.908 71.172 117.869 70.8834 117.129 69.6695C116.389 68.4557 116.014 66.0221 116.758 62.0326C116.805 61.779 116.749 61.5171 116.602 61.3046C116.455 61.092 116.229 60.9463 115.974 60.8993Z" fill="#4D4B4B"/>
<path d="M113.481 60.552C113.358 60.5144 113.229 60.5012 113.101 60.5132C112.973 60.5252 112.849 60.5622 112.735 60.622C112.622 60.6818 112.521 60.7632 112.44 60.8616C112.358 60.9601 112.296 61.0736 112.258 61.1957C110.082 68.24 110.935 73.9572 114.639 78.063C114.813 78.255 115.055 78.3707 115.314 78.3848C115.573 78.3988 115.827 78.31 116.02 78.1379C116.115 78.0526 116.193 77.9493 116.249 77.834C116.304 77.7188 116.336 77.5937 116.343 77.4661C116.35 77.3384 116.332 77.2107 116.289 77.0902C116.246 76.9696 116.18 76.8587 116.094 76.7636C112.879 73.2005 112.076 68.4084 114.128 61.7678C114.165 61.6457 114.179 61.5174 114.167 61.3902C114.155 61.263 114.117 61.1394 114.057 61.0265C113.997 60.9136 113.915 60.8136 113.816 60.7322C113.717 60.6507 113.603 60.5895 113.481 60.552Z" fill="#4D4B4B"/>
<path fill-rule="evenodd" clip-rule="evenodd" d="M106.955 64.8223C106.851 65.0961 106.715 65.3545 106.553 65.5827C106.391 65.8109 106.207 66.0044 106.011 66.1522C105.816 66.3001 105.613 66.3993 105.413 66.4443C105.214 66.4893 105.022 66.4791 104.849 66.4144C104.676 66.3496 104.526 66.2316 104.405 66.067C104.285 65.9024 104.198 65.6945 104.149 65.4551C104.1 65.2157 104.09 64.9495 104.12 64.6718C104.149 64.394 104.218 64.1101 104.321 63.8363C104.531 63.2833 104.87 62.8049 105.265 62.5063C105.66 62.2077 106.078 62.1134 106.427 62.2442C106.776 62.3749 107.028 62.72 107.127 63.2035C107.226 63.687 107.164 64.2693 106.955 64.8223Z" fill="#4D4B4B"/>
<path fill-rule="evenodd" clip-rule="evenodd" d="M120.843 67.4023C120.74 67.6761 120.603 67.9345 120.441 68.1627C120.28 68.3909 120.096 68.5845 119.9 68.7323C119.705 68.8802 119.501 68.9794 119.302 69.0244C119.103 69.0694 118.911 69.0592 118.738 68.9944C118.565 68.9297 118.414 68.8117 118.294 68.6471C118.174 68.4825 118.087 68.2745 118.038 68.0351C117.989 67.7958 117.979 67.5296 118.009 67.2518C118.038 66.9741 118.107 66.6902 118.21 66.4164C118.419 65.8634 118.759 65.385 119.154 65.0864C119.548 64.7878 119.966 64.6935 120.316 64.8243C120.665 64.955 120.917 65.3001 121.016 65.7836C121.115 66.267 121.053 66.8493 120.843 67.4023Z" fill="#4D4B4B"/>
<path d="M120.607 74.4058C120.367 74.3068 120.098 74.3065 119.859 74.4048C119.619 74.5031 119.428 74.692 119.329 74.9301C115.168 84.8855 106.151 92.3085 97.2369 93.7623C92.7796 94.4892 88.3683 93.7606 84.4695 91.1656C80.5707 88.5704 77.1533 84.071 74.8482 77.1099C74.8081 76.9884 74.7443 76.8761 74.6605 76.7792C74.5766 76.6823 74.4744 76.6028 74.3597 76.5453C74.245 76.4877 74.12 76.4532 73.9919 76.4437C73.8637 76.4342 73.735 76.45 73.6129 76.49C73.3667 76.5707 73.1627 76.7453 73.0459 76.9755C72.929 77.2058 72.9089 77.4728 72.9899 77.7178C75.3967 84.9863 79.0525 89.9015 83.3816 92.7831C87.7107 95.6647 92.6818 96.476 97.5533 95.6815C107.296 94.0926 116.725 86.2295 121.135 75.6769C121.234 75.4387 121.234 75.1709 121.135 74.9325C121.036 74.6941 120.846 74.5047 120.607 74.4058Z" fill="#4D4B4B"/>
<path d="M97.9844 79.6545C97.7524 79.5391 97.4839 79.5202 97.2379 79.6019C96.9919 79.6835 96.7886 79.859 96.6727 80.0898C96.6154 80.2041 96.5812 80.3285 96.5722 80.456C96.5632 80.5835 96.5796 80.7114 96.6203 80.8326C96.661 80.9538 96.7254 81.0658 96.8096 81.1622C96.8939 81.2586 96.9964 81.3376 97.1114 81.3946C97.1114 81.3946 100.128 82.9022 104.085 82.9773C104.345 82.9823 104.595 82.8847 104.782 82.7059C104.969 82.5272 105.077 82.282 105.082 82.0242C105.084 81.8965 105.061 81.7695 105.014 81.6506C104.968 81.5316 104.898 81.423 104.808 81.331C104.719 81.239 104.613 81.1653 104.495 81.1141C104.378 81.063 104.251 81.0355 104.123 81.0331C100.643 80.9671 97.9844 79.6545 97.9844 79.6545Z" fill="#4D4B4B"/>
<path fill-rule="evenodd" clip-rule="evenodd" d="M44.6198 136.133C41.1809 140.596 35.4816 153.565 33.5775 158.719C31.6729 163.875 32.16 164.756 33.7987 165.152C37.1588 165.965 54.6133 172.025 57.4918 172.862C60.3703 173.699 60.2887 174.604 58.2002 175.725C51.9841 179.064 47.6927 185.374 44.6539 189.42C38.7718 197.251 42.2318 200.778 39.983 200.692C37.7337 200.606 24.2605 198.897 17.7532 197.508C0.46015 193.819 -0.822093 181.305 0.296997 170.64C1.52168 158.968 14.7127 135.34 22.9861 122.26C38.988 96.962 55.6827 91.8658 61.6089 90.3707C67.72 88.8294 69.8196 89.7493 70.3001 92.6289C73.0009 108.816 82.4235 104.964 84.9143 103.368C87.8709 101.472 88.3073 99.1502 92.2635 99.2096C117.462 99.5892 121.71 129.18 122.872 135.513C124.034 141.846 122.983 142.727 121.061 142.892C118.176 143.141 90.9064 143.236 83.4672 143.323C76.0286 143.409 76.0286 144.269 75.5095 147.195C74.5687 152.498 75.0117 177.105 75.0117 177.105C73.2401 177.656 69.5308 175.728 64.3829 172.92C59.2344 170.111 48.1631 166.862 41.5201 165.21C34.877 163.558 34.9876 162.401 36.2609 157.004C37.5342 151.607 44.6198 136.133 44.6198 136.133ZM80.663 111.8C78.9517 111.8 77.5628 113.268 77.5628 115.076C77.5628 116.885 78.9517 118.353 80.663 118.353C82.3738 118.353 83.7627 116.885 83.7627 115.076C83.7627 113.268 82.3738 111.8 80.663 111.8ZM80.663 130.255C79.4121 130.255 78.3964 131.328 78.3964 132.651C78.3964 133.973 79.4121 135.046 80.663 135.046C81.914 135.046 82.9291 133.973 82.9291 132.651C82.9291 131.328 81.914 130.255 80.663 130.255Z" fill="#4D4B4B"/>
<path d="M53.35 174.97C53.1149 174.862 52.8459 174.85 52.6024 174.939C52.3589 175.027 52.1607 175.209 52.0515 175.443C51.9422 175.676 51.9309 175.944 52.0199 176.186C52.1089 176.428 52.291 176.626 52.5261 176.734C52.5261 176.734 56.8645 178.74 61.8277 181.416C66.791 184.093 72.4115 187.518 74.7184 189.994C74.8946 190.183 75.1392 190.295 75.3983 190.305C75.6573 190.315 75.9097 190.222 76.0998 190.046C76.2899 189.871 76.4023 189.628 76.4121 189.37C76.4219 189.112 76.3284 188.861 76.1522 188.672C73.4105 185.73 67.7829 182.416 62.7596 179.707C57.7363 176.997 53.35 174.97 53.35 174.97Z" fill="#4D4B4B"/>
<path d="M70.8018 189.258C70.6803 189.3 70.5682 189.365 70.472 189.45C70.3757 189.535 70.2972 189.637 70.241 189.752C70.1277 189.984 70.1115 190.251 70.196 190.495C70.2805 190.738 70.4588 190.939 70.6916 191.052C70.6916 191.052 74.035 192.737 75.4679 194.187C75.5579 194.278 75.6651 194.351 75.7834 194.401C75.9017 194.451 76.0288 194.477 76.1573 194.478C76.2858 194.479 76.4132 194.455 76.5324 194.407C76.6515 194.359 76.76 194.288 76.8516 194.199C77.0364 194.018 77.1413 193.771 77.1434 193.513C77.1454 193.255 77.0444 193.007 76.8625 192.823C74.9499 190.889 71.5482 189.304 71.5482 189.304C71.3153 189.191 71.0469 189.175 70.8018 189.258Z" fill="#4D4B4B"/>
<path d="M68.2257 192.546C67.9701 192.503 67.7075 192.562 67.4957 192.711C67.2839 192.859 67.1402 193.086 67.0962 193.34C67.0522 193.594 67.1114 193.855 67.2608 194.066C67.4101 194.276 67.6375 194.42 67.8928 194.464C67.8928 194.464 71.558 195.102 74.9836 196.877C75.0975 196.936 75.222 196.972 75.35 196.983C75.4779 196.994 75.6069 196.98 75.7294 196.942C75.8519 196.903 75.9656 196.841 76.064 196.759C76.1624 196.677 76.2436 196.576 76.3029 196.463C76.4225 196.234 76.4458 195.968 76.3679 195.722C76.2899 195.476 76.117 195.271 75.8871 195.152C72.1278 193.205 68.2257 192.546 68.2257 192.546Z" fill="#4D4B4B"/>
<path d="M40.5804 187.887C40.4779 187.964 40.3917 188.061 40.3266 188.171C40.2616 188.281 40.219 188.403 40.2013 188.529C40.1835 188.656 40.191 188.784 40.2233 188.908C40.2556 189.032 40.312 189.148 40.3894 189.25C40.3894 189.25 41.653 190.913 43.1764 192.78C44.6998 194.647 46.4008 196.671 47.6351 197.633C48.6595 198.432 49.4843 199.061 50.8073 199.394C52.1303 199.727 53.8444 199.796 56.9378 199.769C63.0873 199.714 70.2547 199.61 76.0375 200.366C76.1649 200.383 76.2944 200.374 76.4185 200.341C76.5427 200.308 76.6591 200.251 76.7611 200.173C76.863 200.095 76.9485 199.998 77.0127 199.887C77.077 199.777 77.1186 199.654 77.1353 199.528C77.152 199.401 77.1434 199.272 77.1101 199.149C77.0768 199.026 77.0195 198.91 76.9412 198.809C76.863 198.707 76.7655 198.622 76.6542 198.559C76.543 198.495 76.4202 198.453 76.2928 198.437C70.2825 197.651 63.0601 197.768 56.9203 197.823C53.8685 197.851 52.2617 197.754 51.2875 197.509C50.3132 197.263 49.8648 196.901 48.8409 196.103C48.027 195.468 46.194 193.39 44.6954 191.553C43.1967 189.717 41.9499 188.076 41.9499 188.076C41.7934 187.871 41.5612 187.735 41.3044 187.7C41.0476 187.664 40.7872 187.732 40.5804 187.887Z" fill="#4D4B4B"/>
<path d="M184.559 63.1193C184.309 63.0507 184.042 63.0835 183.817 63.2105C183.705 63.2735 183.606 63.3577 183.527 63.4585C183.448 63.5592 183.39 63.6745 183.356 63.7977C183.322 63.9209 183.312 64.0496 183.328 64.1765C183.344 64.3033 183.384 64.4259 183.448 64.5371C186.328 69.5871 186.23 74.3806 183.028 79.4428C182.959 79.551 182.913 79.6715 182.891 79.7975C182.87 79.9235 182.873 80.0525 182.902 80.1771C182.931 80.3017 182.983 80.4195 183.058 80.5237C183.132 80.6279 183.227 80.7166 183.335 80.7845C183.555 80.9217 183.82 80.9667 184.073 80.9095C184.325 80.8523 184.545 80.6976 184.683 80.4795C188.188 74.9392 188.316 69.1288 185.149 63.5763C185.021 63.3522 184.808 63.1878 184.559 63.1193Z" fill="#4D4B4B"/>
<path d="M181.066 67.3063C180.816 67.3763 180.605 67.542 180.478 67.7669C180.352 67.9919 180.32 68.2576 180.39 68.5058C180.72 69.6663 180.715 70.5717 180.556 71.1567C180.397 71.7418 180.139 71.9905 179.843 72.1066C179.547 72.2226 179.103 72.2243 178.476 71.8949C177.85 71.5655 177.086 70.8981 176.337 69.8085C176.191 69.5954 175.966 69.4489 175.711 69.401C175.456 69.3532 175.193 69.408 174.979 69.5534C174.765 69.6988 174.617 69.9228 174.569 70.1763C174.521 70.4297 174.576 70.6918 174.722 70.9049C175.606 72.1924 176.566 73.0921 177.562 73.6155C178.557 74.1389 179.632 74.2802 180.56 73.9162C181.489 73.5522 182.162 72.7013 182.444 71.6648C182.726 70.6282 182.673 69.3884 182.273 67.9771C182.202 67.729 182.035 67.5189 181.809 67.3931C181.582 67.2673 181.315 67.2361 181.066 67.3063Z" fill="#4D4B4B"/>
<path d="M196.749 60.5194C196.625 60.5533 196.509 60.6111 196.408 60.6896C196.306 60.7681 196.222 60.8656 196.158 60.9767C196.095 61.0878 196.054 61.2102 196.038 61.337C196.022 61.4638 196.032 61.5925 196.066 61.7156C196.737 64.1403 196.06 65.869 195.302 66.39C194.923 66.6505 194.531 66.7244 193.935 66.4997C193.338 66.275 192.552 65.6783 191.747 64.5175C191.599 64.3052 191.373 64.1597 191.119 64.1131C190.864 64.0665 190.6 64.1225 190.387 64.2689C190.281 64.3414 190.191 64.4339 190.121 64.5412C190.051 64.6485 190.003 64.7685 189.98 64.8942C189.957 65.0199 189.959 65.1489 189.986 65.2739C190.013 65.3989 190.064 65.5174 190.137 65.6225C191.097 67.007 192.138 67.9032 193.243 68.3191C194.347 68.735 195.53 68.5965 196.413 67.9901C198.178 66.7773 198.769 64.155 197.951 61.1989C197.917 61.0757 197.859 60.9604 197.78 60.8596C197.701 60.7588 197.603 60.6744 197.492 60.6113C197.38 60.5482 197.257 60.5076 197.129 60.4918C197.002 60.476 196.873 60.4854 196.749 60.5194Z" fill="#4D4B4B"/>
<path d="M201.02 80.5869C200.799 80.4518 200.534 80.4095 200.282 80.4691C200.029 80.5288 199.811 80.6855 199.675 80.9049C198.148 83.3712 196.53 85.3305 194.857 86.3609C193.183 87.3914 191.519 87.6165 189.312 86.6106C189.195 86.5573 189.069 86.5275 188.941 86.5227C188.813 86.518 188.685 86.5384 188.564 86.5828C188.444 86.6273 188.333 86.6949 188.239 86.7818C188.145 86.8687 188.069 86.9732 188.016 87.0893C187.962 87.2054 187.932 87.3309 187.927 87.4585C187.923 87.5862 187.943 87.7135 187.988 87.8333C188.033 87.9531 188.101 88.0629 188.188 88.1565C188.275 88.2501 188.38 88.3257 188.497 88.379C191.194 89.6085 193.767 89.3198 195.886 88.0153C198.005 86.7108 199.736 84.5135 201.34 81.9253C201.407 81.8166 201.452 81.6957 201.473 81.5696C201.493 81.4434 201.488 81.3145 201.458 81.1902C201.429 81.0659 201.375 80.9486 201.3 80.8451C201.224 80.7416 201.129 80.6538 201.02 80.5869Z" fill="#4D4B4B"/>
<path d="M212.856 84.3744C212.613 84.2859 212.344 84.2972 212.109 84.4059C211.874 84.5146 211.691 84.7118 211.602 84.954C210.633 87.5926 208.437 90.4544 205.75 92.4118C203.063 94.3692 199.948 95.4076 197.074 94.7479C193.435 93.9125 189.915 95.5051 186.72 98.0512C183.526 100.597 180.55 104.148 177.816 107.617C167.241 121.04 160.623 140.174 160.623 140.174C160.581 140.295 160.563 140.422 160.571 140.55C160.578 140.678 160.611 140.802 160.667 140.917C160.723 141.032 160.802 141.135 160.898 141.22C160.994 141.305 161.106 141.37 161.227 141.411C161.349 141.453 161.477 141.471 161.605 141.463C161.733 141.456 161.859 141.423 161.974 141.367C162.09 141.311 162.193 141.233 162.279 141.138C162.364 141.042 162.429 140.931 162.471 140.81C162.471 140.81 169.094 121.841 179.355 108.818C182.061 105.383 184.981 101.929 187.943 99.5688C190.904 97.2086 193.797 95.9919 196.634 96.6433C200.237 97.4704 203.904 96.1681 206.906 93.9815C209.907 91.795 212.305 88.7101 213.439 85.6217C213.528 85.3794 213.517 85.1119 213.407 84.878C213.298 84.6441 213.1 84.4629 212.856 84.3744Z" fill="#4D4B4B"/>
<path d="M196.161 102.933C196.033 102.942 195.908 102.977 195.793 103.035C195.678 103.092 195.576 103.172 195.492 103.269C195.408 103.365 195.344 103.478 195.304 103.599C195.264 103.721 195.249 103.849 195.258 103.976C197.192 129.615 196.223 153.698 185.617 172.809C185.555 172.921 185.516 173.044 185.501 173.171C185.487 173.298 185.498 173.426 185.533 173.549C185.569 173.672 185.628 173.786 185.709 173.886C185.789 173.986 185.888 174.069 186 174.131C186.113 174.193 186.236 174.232 186.364 174.246C186.492 174.261 186.621 174.25 186.744 174.214C186.868 174.179 186.983 174.119 187.083 174.04C187.184 173.96 187.267 173.861 187.329 173.749C198.246 154.078 199.152 129.608 197.208 103.831C197.189 103.573 197.068 103.334 196.871 103.166C196.675 102.998 196.419 102.914 196.161 102.933Z" fill="#4D4B4B"/>
<path d="M235.197 91.5825C233.746 91.578 232.307 91.8211 230.82 92.2718C227.619 93.2423 224.851 96.0098 222.021 98.8567C219.19 101.704 216.312 104.665 213.339 106.199C208.612 108.639 205.674 107.649 203.675 106.15C201.676 104.65 200.763 102.551 200.763 102.551C200.713 102.433 200.641 102.326 200.549 102.237C200.458 102.147 200.349 102.076 200.23 102.028C200.111 101.98 199.984 101.956 199.855 101.957C199.727 101.958 199.6 101.984 199.481 102.034C199.363 102.084 199.256 102.157 199.166 102.248C199.076 102.339 199.005 102.447 198.957 102.565C198.908 102.684 198.884 102.81 198.885 102.938C198.886 103.066 198.913 103.192 198.963 103.31C198.963 103.31 200.027 105.85 202.497 107.703C204.968 109.556 208.992 110.633 214.239 107.925C217.652 106.164 220.597 103.055 223.411 100.226C226.224 97.3961 228.922 94.8805 231.39 94.1325C234.084 93.3158 236.28 93.259 238.992 94.2139C241.705 95.1687 244.932 97.2064 249.343 100.648C258.774 108.007 275.605 120.195 284.623 151.519C286.919 159.497 286.202 168.335 284.045 175.891C281.887 183.447 278.234 189.725 275.057 192.464C275.057 192.464 275.057 192.464 275.056 192.464C273.016 194.223 269.129 197.95 261.761 200.164C254.392 202.378 243.565 203.039 227.818 198.266C227.768 198.251 227.734 198.215 227.723 198.164C227.712 198.115 227.727 198.067 227.766 198.032C227.769 198.029 227.773 198.025 227.777 198.022C229.316 196.604 231.548 194.078 232.787 190.458C234.025 186.838 234.223 182.127 231.774 176.565C231.759 176.53 231.758 176.493 231.774 176.458C231.787 176.428 231.813 176.41 231.84 176.397C234.913 175.615 244.279 173.923 260.797 176.774C260.924 176.796 261.053 176.793 261.179 176.765C261.304 176.737 261.422 176.685 261.527 176.611C261.632 176.538 261.722 176.444 261.79 176.336C261.859 176.228 261.906 176.108 261.928 175.982C261.95 175.856 261.946 175.727 261.918 175.603C261.89 175.478 261.838 175.36 261.764 175.256C261.69 175.151 261.596 175.062 261.487 174.994C261.379 174.926 261.258 174.879 261.131 174.857C244.29 171.95 234.597 173.675 231.293 174.523C231.269 174.529 231.245 174.537 231.222 174.545C230.668 174.732 230.22 175.142 229.984 175.673C229.984 175.673 229.983 175.674 229.983 175.675C229.749 176.206 229.748 176.812 229.982 177.344C232.256 182.508 232.03 186.628 230.935 189.832C229.839 193.035 227.827 195.324 226.448 196.595L226.458 196.585C225.899 197.086 225.65 197.853 225.814 198.585C225.977 199.318 226.527 199.909 227.248 200.127C243.283 204.987 254.551 204.363 262.326 202.027C270.101 199.69 274.404 195.601 276.337 193.934C280.046 190.736 283.69 184.251 285.926 176.423C288.161 168.594 288.934 159.427 286.503 150.984C277.344 119.169 259.92 106.429 250.549 99.1173C246.071 95.6231 242.714 93.4609 239.645 92.3804C238.11 91.8401 236.648 91.5871 235.197 91.5825Z" fill="#4D4B4B"/>
<path d="M202.819 176.963C202.819 176.963 192.456 176.289 186.252 184.504C184.895 186.301 183.724 188.259 183.112 190.004C182.806 190.877 182.625 191.697 182.706 192.498C182.786 193.298 183.265 194.14 184.073 194.504C184.073 194.504 184.074 194.504 184.074 194.504C185.2 195.01 186.482 194.716 187.743 194.009C189.004 193.301 190.375 192.152 191.982 190.574C198.64 184.038 204.195 182.131 208.724 182.394C208.852 182.402 208.981 182.384 209.102 182.342C209.223 182.3 209.335 182.235 209.431 182.15C209.527 182.065 209.605 181.962 209.661 181.847C209.717 181.732 209.75 181.607 209.757 181.479C209.772 181.222 209.683 180.969 209.511 180.776C209.338 180.584 209.096 180.467 208.837 180.452C203.659 180.152 197.522 182.402 190.609 189.189C189.065 190.705 187.771 191.76 186.783 192.314C185.794 192.869 185.242 192.894 184.879 192.731C184.707 192.653 184.685 192.643 184.651 192.304C184.617 191.965 184.707 191.361 184.958 190.646C185.46 189.215 186.548 187.351 187.816 185.673C193.359 178.333 202.696 178.904 202.696 178.904C202.824 178.912 202.953 178.895 203.074 178.854C203.196 178.813 203.308 178.748 203.404 178.663C203.501 178.579 203.579 178.476 203.636 178.362C203.692 178.247 203.726 178.122 203.734 177.995C203.75 177.737 203.662 177.484 203.491 177.291C203.319 177.097 203.078 176.98 202.819 176.963Z" fill="#4D4B4B"/>
<path d="M209.099 185.956C206.938 186.024 204.337 186.665 201.922 187.602C199.507 188.539 197.3 189.739 195.948 191.167C194.875 192.299 193.963 192.798 193.311 192.944C192.66 193.09 192.253 192.951 191.891 192.658C191.94 192.698 191.87 192.645 191.836 192.426C191.801 192.206 191.804 191.876 191.838 191.551C191.907 190.902 192.078 190.306 192.078 190.306C192.15 190.058 192.121 189.792 191.996 189.566C191.871 189.34 191.661 189.173 191.412 189.101C191.162 189.029 190.895 189.059 190.668 189.183C190.441 189.307 190.272 189.516 190.2 189.764C190.2 189.764 189.984 190.49 189.894 191.347C189.848 191.775 189.828 192.244 189.903 192.727C189.979 193.209 190.154 193.762 190.656 194.168C191.445 194.806 192.569 195.104 193.741 194.841C194.913 194.579 196.119 193.821 197.371 192.501C198.342 191.475 200.386 190.286 202.633 189.415C204.879 188.543 207.351 187.957 209.16 187.9C209.161 187.9 209.161 187.9 209.161 187.9C210.828 187.848 211.719 188.082 212.695 188.674C213.671 189.267 214.745 190.308 216.399 191.841C218.298 193.599 221.039 194.294 223.902 194.127C226.764 193.96 229.789 192.931 232.379 191.082C232.59 190.932 232.732 190.704 232.774 190.45C232.816 190.195 232.755 189.935 232.604 189.725C232.529 189.621 232.435 189.533 232.326 189.465C232.216 189.398 232.095 189.353 231.968 189.332C231.841 189.311 231.712 189.315 231.587 189.344C231.462 189.374 231.343 189.427 231.239 189.501C228.959 191.129 226.257 192.041 223.787 192.185C221.317 192.329 219.122 191.705 217.732 190.418C216.099 188.905 214.99 187.79 213.713 187.014C212.436 186.239 211.004 185.896 209.099 185.956Z" fill="#4D4B4B"/>
<path d="M206.237 169.956C201.169 170.012 195.965 170.982 191.734 173.005C188.134 174.727 184.656 177.349 181.946 180.058C179.236 182.768 177.263 185.48 176.804 187.84C176.384 190.005 176.856 191.956 178.256 193.061C179.656 194.166 181.728 194.259 184.032 193.405C184.275 193.315 184.472 193.133 184.579 192.898C184.687 192.664 184.697 192.396 184.607 192.155C184.562 192.035 184.494 191.925 184.406 191.831C184.319 191.738 184.214 191.662 184.097 191.609C183.98 191.556 183.854 191.526 183.725 191.522C183.597 191.517 183.469 191.538 183.349 191.583C181.437 192.291 180.169 192.087 179.471 191.537C178.774 190.986 178.391 189.92 178.724 188.209C179.018 186.692 180.77 183.993 183.333 181.43C185.896 178.868 189.239 176.357 192.58 174.759C200.327 171.053 212.507 171.237 219.129 174.168C226.207 177.302 230.809 178.171 230.809 178.171C230.935 178.194 231.065 178.193 231.191 178.167C231.317 178.141 231.436 178.09 231.542 178.018C231.648 177.946 231.739 177.854 231.809 177.747C231.88 177.64 231.928 177.52 231.952 177.394C232 177.141 231.944 176.879 231.798 176.666C231.652 176.453 231.426 176.307 231.171 176.259C231.171 176.259 226.84 175.453 219.924 172.391C216.238 170.759 211.305 169.9 206.237 169.956Z" fill="#4D4B4B"/>
<path d="M244.985 121.598C244.86 121.628 244.743 121.683 244.639 121.758C244.536 121.834 244.448 121.929 244.381 122.038C244.315 122.147 244.27 122.268 244.251 122.395C244.231 122.521 244.237 122.65 244.267 122.774C246.194 130.629 246.66 141.672 247.767 151.806C248.873 161.94 250.496 171.233 255.487 175.798C255.678 175.972 255.931 176.064 256.19 176.053C256.449 176.043 256.693 175.93 256.869 175.74C256.955 175.646 257.023 175.536 257.067 175.416C257.111 175.296 257.131 175.168 257.125 175.041C257.12 174.913 257.089 174.788 257.035 174.672C256.981 174.556 256.904 174.452 256.81 174.366C252.682 170.59 250.807 161.634 249.711 151.595C248.615 141.556 248.175 130.5 246.167 122.312C246.137 122.188 246.082 122.071 246.006 121.968C245.93 121.865 245.835 121.778 245.725 121.712C245.615 121.645 245.493 121.601 245.366 121.582C245.239 121.562 245.11 121.568 244.985 121.598Z" fill="#4D4B4B"/>
<path d="M189.903 47.5958C189.698 47.6189 189.505 47.7058 189.353 47.8443C189.201 47.9827 189.096 48.1655 189.055 48.3665C189.055 48.3665 188.22 52.3999 185.472 56.5635C182.724 60.7272 178.18 64.9321 170.548 65.4065C170.409 65.4152 170.273 65.4533 170.151 65.5182C170.028 65.5831 169.92 65.6733 169.835 65.7828C169.75 65.8923 169.69 66.0187 169.658 66.1533C169.626 66.288 169.623 66.4279 169.649 66.5637C169.649 66.5637 174.476 91.3893 196.334 96.5803C196.459 96.61 196.589 96.6149 196.716 96.5948C196.843 96.5746 196.964 96.5298 197.074 96.4629C197.183 96.3959 197.278 96.3082 197.354 96.2047C197.429 96.1011 197.483 95.9838 197.513 95.8595C197.573 95.6086 197.53 95.3442 197.394 95.1246C197.258 94.9049 197.04 94.7479 196.788 94.6882C177.614 90.1347 172.478 69.9623 171.849 67.1965C179.453 66.3209 184.286 61.9048 187.107 57.6317C188.845 54.9987 189.738 52.7336 190.291 51.037C193.663 57.2063 197.969 60.759 201.631 62.5884C205.711 64.6269 209.008 64.7475 209.008 64.7475C209.174 64.7532 209.338 64.7167 209.486 64.6415C209.634 64.5662 209.76 64.4548 209.853 64.3176C209.946 64.1804 210.002 64.022 210.016 63.8573C210.03 63.6927 210.001 63.5272 209.933 63.3765C209.591 62.62 209.456 61.2312 209.642 59.7822C209.828 58.3333 210.31 56.8154 210.966 55.7266C211.622 54.6378 212.371 54.0672 213.094 54.032C213.818 53.9969 214.899 54.4684 216.283 56.3236C218.791 59.6848 217.966 62.6872 216.498 65.1405C215.03 67.5938 212.892 69.2341 212.892 69.2341C212.758 69.3368 212.652 69.4726 212.586 69.6282C212.249 70.4212 212.231 71.3481 212.269 72.6221C212.308 73.8962 212.474 75.4402 212.786 77.0881C213.409 80.3839 214.592 84.0893 216.654 86.7745C219.415 90.3701 223.876 92.0075 227.595 92.8047C231.313 93.6019 234.386 93.5451 234.386 93.5451C234.515 93.5428 234.641 93.5154 234.759 93.4644C234.877 93.4135 234.983 93.3399 235.073 93.2479C235.162 93.156 235.232 93.0475 235.279 92.9286C235.326 92.8097 235.349 92.6828 235.347 92.5551C235.344 92.4273 235.317 92.3013 235.266 92.1841C235.214 92.067 235.14 91.961 235.048 91.8723C234.955 91.7836 234.846 91.7139 234.727 91.6671C234.607 91.6203 234.48 91.5975 234.351 91.5998C234.351 91.5998 231.491 91.6498 228.007 90.9028C224.523 90.1559 220.516 88.599 218.208 85.5934C216.464 83.3225 215.295 79.8338 214.707 76.7277C214.413 75.1747 214.259 73.716 214.224 72.5635C214.191 71.4794 214.324 70.7006 214.377 70.5151C214.798 70.1826 216.66 68.6742 218.178 66.136C219.876 63.2995 220.842 59.1703 217.853 55.1643C216.269 53.0403 214.628 52.0096 212.998 52.0889C211.368 52.1681 210.131 53.3292 209.289 54.7268C208.447 56.1244 207.919 57.8481 207.703 59.5358C207.564 60.6174 207.612 61.6427 207.771 62.6112C206.642 62.4394 204.953 62.0704 202.508 60.8493C198.769 58.9813 194.202 55.3604 190.902 48.1581C190.816 47.9715 190.674 47.8166 190.494 47.7156C190.315 47.6146 190.108 47.5727 189.903 47.5958Z" fill="#4D4B4B"/>
<path d="M209.997 13.4943C208.175 13.4146 206.248 13.4783 204.208 13.6897C196.184 14.5216 191.552 18.6156 189.046 22.4751C187.241 25.2543 186.653 27.4313 186.373 28.7192C180.478 25.4745 175.441 24.4994 171.27 25.3811C166.819 26.3219 163.435 29.2582 161 33.0658C156.13 40.681 154.773 51.8433 155.393 59.5652C156.59 74.4384 152.754 77.5875 150.307 82.3651C150.307 82.3651 150.306 82.3651 150.306 82.3651C149.094 84.7325 147.613 88.4897 147.444 92.9231C147.274 97.3566 148.456 102.474 152.501 107.347C160.726 117.257 175.42 113.837 175.42 113.837C175.672 113.78 175.892 113.625 176.03 113.407C176.168 113.188 176.213 112.924 176.155 112.673C176.097 112.421 175.941 112.203 175.722 112.066C175.502 111.928 175.237 111.884 174.984 111.941C174.984 111.941 161.351 114.957 154.008 106.108C150.268 101.603 149.244 97.0391 149.398 92.997C149.553 88.9548 150.926 85.4411 152.049 83.2476C154.273 78.9045 158.568 74.6534 157.342 59.41C156.752 52.0741 158.165 41.1229 162.65 34.1101C164.892 30.6036 167.832 28.0966 171.676 27.2841C175.519 26.4716 180.39 27.3412 186.534 30.9815C186.673 31.064 186.831 31.1107 186.993 31.1174C187.155 31.1242 187.316 31.0907 187.462 31.0201C187.608 30.9495 187.733 30.8439 187.828 30.7128C187.923 30.5818 187.983 30.4294 188.004 30.2694C188.004 30.2694 188.427 27.0139 190.689 23.5303C192.951 20.0466 196.957 16.3969 204.411 15.6242C212.231 14.8136 218.002 16.2359 222.583 19.5593C227.165 22.8827 230.602 28.1919 233.461 35.3042C236.334 42.4532 238.038 48.7657 241.476 53.7727C244.913 58.7797 250.153 62.3308 259.583 63.7619C262.575 64.2158 268.146 66.0427 272.474 69.5121C276.802 72.9816 279.94 77.9311 278.621 85.1126C277.295 92.3351 272.92 96.4678 267.711 98.7298C262.502 100.992 256.444 101.27 252.173 100.526C251.918 100.482 251.655 100.54 251.443 100.688C251.23 100.837 251.086 101.063 251.041 101.317C250.997 101.571 251.055 101.832 251.204 102.043C251.353 102.254 251.58 102.398 251.836 102.442C256.489 103.253 262.836 102.969 268.493 100.512C274.15 98.0557 279.103 93.3119 280.545 85.4621C281.994 77.5708 278.396 71.7618 273.701 67.9978C269.006 64.2341 263.267 62.3534 259.879 61.8394H259.878C250.806 60.4626 246.26 57.2917 243.091 52.6752C239.921 48.0584 238.196 41.8452 235.276 34.5812C232.342 27.2804 228.74 21.6176 223.736 17.9874C219.982 15.2648 215.463 13.7335 209.997 13.4943Z" fill="#4D4B4B"/>
<path fill-rule="evenodd" clip-rule="evenodd" d="M175.202 112.89C175.202 112.89 161.038 116.107 153.254 106.727C145.47 97.3482 148.842 87.367 151.178 82.8061C153.513 78.2458 157.579 74.5458 156.368 59.4874C155.157 44.4296 161.909 15.2594 187.034 30.1454C187.034 30.1454 188.831 16.2615 204.31 14.6569C220.289 13.0006 228.576 20.5295 234.369 34.9426C240.161 49.3556 241.228 59.9926 259.731 62.8005C266.11 63.7682 282.35 70.215 279.583 85.2878C276.815 100.36 260.928 103.038 252.004 101.484C251.285 100.922 250.597 100.39 249.946 99.8821C242.824 94.3252 238.659 92.282 234.369 92.5727C234.369 92.5727 222.5 92.785 217.43 86.1838C213.624 81.2277 212.725 71.7968 213.486 70.0071C213.486 70.0071 222.564 63.1112 217.068 55.7441C211.13 47.7855 207.173 59.6453 209.041 63.7754C209.041 63.7754 196.793 63.3625 190.012 48.562C190.012 48.562 186.552 65.3861 170.609 66.3771C170.609 66.3771 175.359 90.599 196.561 95.6341C190.186 94.4235 183.943 101.417 178.585 108.217C177.407 109.713 176.278 111.282 175.202 112.89Z" fill="#4D4B4B"/>
<path d="M175.204 17.1439C172.551 16.9451 169.564 17.699 166.254 19.645C166.03 19.7762 165.869 19.9902 165.804 20.2399C165.739 20.4897 165.777 20.7548 165.909 20.977C166.041 21.1991 166.256 21.36 166.507 21.4243C166.758 21.4887 167.024 21.4511 167.248 21.32C170.307 19.5216 172.88 18.9207 175.056 19.0838C177.233 19.2468 179.06 20.1666 180.658 21.6142C183.853 24.5093 185.984 29.5707 187.114 34.072C187.146 34.196 187.201 34.3126 187.277 34.4153C187.354 34.518 187.45 34.6046 187.56 34.6704C187.67 34.7361 187.792 34.7796 187.919 34.7984C188.047 34.8171 188.176 34.8108 188.301 34.7798C188.552 34.7172 188.768 34.5579 188.902 34.3368C189.035 34.1158 189.075 33.8511 189.012 33.6009C187.828 28.8864 185.672 23.5261 181.975 20.1758C180.126 18.5007 177.857 17.3427 175.204 17.1439Z" fill="#4D4B4B"/>
</g>
<defs>
<clipPath id="clip0_125_203">
<rect width="288" height="205" fill="white"/>
</clipPath>
</defs>
</svg>
