<svg width="104" height="104" viewBox="0 0 104 104" fill="none" xmlns="http://www.w3.org/2000/svg">
<rect width="104" height="104" rx="52" fill="#F0E1FF"/>
<path d="M43.6812 60.875L67.1187 37.4375M43.6812 62.4375V69.3969C43.6812 76.8157 43.6812 80.5219 45.9 81.1157C48.1187 81.7094 50.4562 78.6219 55.1312 72.45L57.7437 68.6875M39.0187 37.9969L61.8968 27.1844C71.4031 22.6907 76.1562 20.4438 79.1875 22.6969C82.2187 24.95 81.3531 30.0875 79.6187 40.3594L76.6375 58.0532C75.5031 64.7688 74.9375 68.125 72.4343 69.5907C69.9312 71.0563 66.6781 69.9313 60.175 67.6813L40.2843 60.8C28.1218 56.5938 22.0406 54.4907 21.8156 50.3625C21.5843 46.2375 27.3968 43.4875 39.0187 37.9969Z" stroke="#7C3ABA" stroke-width="1.5" stroke-linecap="round" stroke-linejoin="round"/>
</svg>
