<svg width="16" height="16" viewBox="0 0 16 16" fill="none" xmlns="http://www.w3.org/2000/svg">
<path d="M5.31752 0.432864C3.71887 0.98745 2.3402 2.04007 1.38401 3.43612C0.427816 4.83216 -0.0554932 6.49804 0.00507043 8.18907C0.0656341 9.8801 0.666878 11.5071 1.72049 12.8312C2.7741 14.1553 4.22454 15.1066 5.85877 15.5454C7.18367 15.8872 8.57178 15.9022 9.90377 15.5891C11.1104 15.3181 12.226 14.7383 13.1413 13.9066C14.0939 13.0145 14.7853 11.8797 15.1413 10.6241C15.5282 9.2587 15.597 7.82278 15.3425 6.42661H7.90252V9.51286H12.2113C12.1252 10.0051 11.9406 10.4749 11.6687 10.8942C11.3968 11.3134 11.0431 11.6735 10.6288 11.9529C10.1026 12.3009 9.50951 12.5351 8.88752 12.6404C8.2637 12.7564 7.62384 12.7564 7.00002 12.6404C6.36775 12.5096 5.76964 12.2487 5.24377 11.8741C4.39895 11.2761 3.76461 10.4265 3.43127 9.44661C3.09229 8.44836 3.09229 7.36612 3.43127 6.36786C3.66855 5.66813 4.06081 5.03103 4.57877 4.50411C5.17151 3.89005 5.92193 3.45111 6.74771 3.23546C7.57349 3.01981 8.44272 3.03578 9.26002 3.28161C9.89848 3.4776 10.4823 3.82004 10.965 4.28161C11.4509 3.79828 11.9359 3.3137 12.42 2.82786C12.67 2.56661 12.9425 2.31786 13.1888 2.05036C12.452 1.36471 11.5871 0.831185 10.6438 0.480364C8.9259 -0.143399 7.04624 -0.160162 5.31752 0.432864Z" fill="white"/>
</svg>
