<svg width="188" height="232" viewBox="0 0 188 232" fill="none" xmlns="http://www.w3.org/2000/svg">
<path d="M147.457 14.6858L144.079 39.0686C143.929 40.1485 144.672 41.1492 145.749 41.3187L170.816 45.2635C172.032 45.4549 173.131 44.5123 173.127 43.281L173.01 8.67629C173.005 7.3463 171.728 6.39111 170.451 6.76271L148.879 13.0399C148.122 13.2602 147.565 13.9048 147.457 14.6858Z" stroke="#4D4B4B" stroke-width="2"/>
<path d="M175.928 8.11288L172.856 5.60254L172.577 46.1865L179 44.9313L175.928 8.11288Z" fill="#4D4B4B"/>
<path d="M175.928 8.81006H178.436C179.421 8.81006 180.259 9.52647 180.412 10.4989L185.346 41.8327C185.535 43.0312 184.621 44.1203 183.408 44.1434L178.673 44.2338" stroke="#4D4B4B" stroke-width="2" stroke-linecap="round"/>
<path d="M159.729 9.64688C160.306 7.02337 162.489 1.90762 166.595 2.43223C168.796 2.71327 170.062 5.25251 170.062 6.49867" stroke="#4D4B4B" stroke-width="2" stroke-linecap="round"/>
<path d="M154.144 11.3206C154.787 8.17352 157.324 1.33016 162.061 1.0089C165.388 0.7833 166.519 5.01727 166.053 7.82944" stroke="#4D4B4B" stroke-width="2" stroke-linecap="round"/>
<path d="M53.8784 166.404L58.9056 167.112V177.978C58.9056 178.621 58.3076 179.097 57.6811 178.953L54.6539 178.255C54.2 178.151 53.8784 177.747 53.8784 177.281V166.404Z" fill="#4D4B4B"/>
<path d="M66.6241 163.615L49.2695 165.289L69.6228 168.636L87.5709 166.962L66.6241 163.615Z" fill="#4D4B4B"/>
<path d="M44.3818 165.056L69.9684 168.927M44.3818 165.056V201.129C44.3818 201.349 44.5251 201.542 44.735 201.607L69.9684 209.359M44.3818 165.056L65.7475 163.754M69.9684 168.927L94.7252 166.863C94.9961 166.84 95.2354 167.038 95.264 167.309L98.9368 202.087C98.9632 202.337 98.7993 202.568 98.5542 202.626L69.9684 209.359M69.9684 168.927V209.359" stroke="#4D4B4B" stroke-width="2" stroke-linecap="round"/>
<path d="M97.4398 222.889C94.5351 226.683 104.701 231.257 110.287 230.002C104.143 226.655 104.748 224.005 104.981 222.889C103.677 221.309 100.344 219.096 97.4398 222.889Z" fill="#4D4B4B"/>
<path d="M106.947 216.38C105.68 219.225 103.906 225.403 106.947 227.354C110.748 229.792 112.015 231.012 116.449 230.402C120.884 229.792 122.151 229.183 119.617 227.354C117.083 225.525 114.627 222.532 115.26 215.216" stroke="#4D4B4B" stroke-width="2" stroke-linecap="round"/>
<path d="M103.23 210.062C97.3071 198.76 97.0279 181.048 95.2188 166.511C78.7773 167.487 68.5736 166.597 63.4623 161.578C56.4292 154.671 58.2896 147.104 58.2896 140.379C64.6996 144.867 62.5959 139.069 88.5095 139.069C112.685 140.408 119.676 175.609 120.149 193.042C120.641 200.605 119.909 207.427 116.479 210.062C109.59 215.355 104.761 212.985 103.23 210.062Z" fill="#4D4B4B"/>
<path d="M87.3759 96.951C94.2675 84.0237 88.9689 78.5176 85.7264 76.0315C86.1095 85.8212 79.6483 91.08 76.221 92.4246V95.5564C76.8272 94.7628 84.3299 95.2234 87.3759 96.951Z" fill="#4D4B4B"/>
<path d="M43.6813 92.1858C48.2757 96.5324 52.2151 96.4708 54.0093 96.672C60.6576 96.672 63.5889 96.001 66.0692 95.1064L64.4908 90.4093C61.1733 88.0231 59.1726 84.1796 58.4028 82.3573C57.5382 83.0854 56.3224 83.222 55.697 82.3573C55.195 81.88 54.1532 80.1069 54.3442 77.4366C54.5351 74.7664 56.1475 75.0658 57.0973 75.758L61.8424 76.2671C61.6427 71.8522 64.3759 70.379 65.7675 70.1942C64.6739 67.7486 66.6299 66.6786 67.6593 66.2583C69.1358 68.0601 71.0707 68.7859 71.8891 69.1235C80.2167 71.2926 85.2998 68.323 87.6459 64.6166C90.1929 60.875 89.7806 52.0888 82.5755 49.95C80.2195 49.0472 74.6344 48.3071 71.1405 52.5679C60.8557 48.8047 55.988 59.5751 54.6526 63.4861L53.1093 67.0521C39.7062 69.8908 38.5266 82.5128 40.8809 88.0405C41.9483 90.5468 42.0887 90.6795 43.6106 92.119L43.6813 92.1858Z" fill="#4D4B4B"/>
<path d="M61.519 76.4948C62.0808 79.6626 64.8352 81.7417 67.5882 81.2628C70.3411 80.7839 72.2152 77.8995 71.6532 74.7317C71.0913 71.564 68.3369 69.4849 65.584 69.9638C62.831 70.4428 60.957 73.3271 61.519 76.4948Z" stroke="#4D4B4B"/>
<path d="M76.3045 76.4948C76.7752 79.6626 79.0829 81.7417 81.3894 81.2628C83.6961 80.7839 85.2661 77.8995 84.7954 74.7317C84.3246 71.564 82.0169 69.4849 79.7102 69.9638C77.4038 70.4429 75.8337 73.3271 76.3045 76.4948Z" stroke="#4D4B4B"/>
<path d="M75.6631 75.4736L71.753 76.0315" stroke="#4D4B4B" stroke-linecap="round"/>
<path d="M75.6631 88.0254C74.7998 89.3625 72.6417 90.3437 70.9152 88.0254" stroke="#4D4B4B" stroke-width="2" stroke-linecap="round"/>
<path d="M73.9873 80.2156C75.18 82.802 75.5607 84.0952 74.4185 84.9573" stroke="#4D4B4B" stroke-linecap="round"/>
<path d="M82.2674 80.0727C81.4246 80.2205 80.6214 79.6581 80.4733 78.8164C80.3253 77.9746 80.8885 77.1724 81.7313 77.0246C82.5741 76.8767 83.3773 77.4392 83.5254 78.2809C83.6735 79.1226 83.1102 79.9248 82.2674 80.0727Z" fill="#4D4B4B"/>
<path d="M69.3309 80.457C68.4881 80.6048 67.6849 80.0424 67.5368 79.2006C67.3887 78.3589 67.9519 77.5567 68.7948 77.4088C69.6376 77.261 70.4408 77.8235 70.5889 78.6652C70.7369 79.5069 70.1737 80.3091 69.3309 80.457Z" fill="#4D4B4B"/>
<path d="M56.5962 78.78C56.7455 78.9816 57.09 79.4467 57.2734 79.6943" stroke="#4D4B4B" stroke-width="2" stroke-linecap="round"/>
<path d="M83.2113 68.2217C86.8317 75.8687 87.2253 82.0972 79.6753 89.8971C72.1253 97.6972 64.0318 90.3818 60.9287 85.7489L58.905 82.746" stroke="#4D4B4B" stroke-width="2" stroke-linecap="round"/>
<path d="M61.1108 75.6245L57.7689 75.7372" stroke="#4D4B4B" stroke-linecap="round"/>
<path d="M97.4506 114.802C100.013 117.758 103.058 128.709 95.213 136.28" stroke="#4D4B4B" stroke-width="2" stroke-linecap="round"/>
<path d="M93.1182 105.737C93.1182 97.9273 82.8873 94.9028 76.3412 96.0481C74.4399 97.4659 69.5879 99.4508 65.39 96.0481C62.1198 96.4217 55.032 98.1543 52.8417 102.096C47.2901 111.277 44.4002 135.461 61.9677 141.955" stroke="#4D4B4B" stroke-linecap="round"/>
<path d="M62.2564 114.802C64.3334 118.042 65.1426 122.8 65.096 126.125C65.0904 126.524 65.5709 126.782 65.9109 126.573C71.2534 123.28 82.0358 124.008 84.6305 125.889C86.8251 127.48 85.2259 129.646 83.93 131.028C80.3588 134.834 74.8881 138.524 71.3334 140.185" stroke="#4D4B4B" stroke-width="2" stroke-linecap="round"/>
<path d="M98.4818 109.044C100.358 110.178 98.9118 115.44 98.13 117.548L97.4497 117.309L97.64 116.484L97.5765 115.658C97.2249 114.786 95.1946 114.132 94.0219 115.658C92.8756 117.151 91.4195 118.429 90.6252 118.747C87.5294 120.404 88.0845 117.693 88.7491 116.131C89.1399 115.404 90.25 112.925 90.6252 110.57C91.0005 108.216 92.6186 107.954 93.5568 107.845C94.4167 107.772 96.6055 107.91 98.4818 109.044Z" fill="#4D4B4B"/>
<path d="M92.9791 106.18C93.6779 106.077 94.5227 106.286 95.018 107.151C95.1249 107.338 95.1947 107.562 95.2134 107.829" stroke="#4D4B4B" stroke-width="2" stroke-linecap="round"/>
<path d="M89.5531 115.639C88.8613 115.167 88.5456 114.458 87.9526 113.252C87.3598 111.624 87.0165 110.679 86.6484 109.317C86.5693 108.879 86.2862 107.691 87.3598 107.568C88.3083 107.458 88.4269 108.223 88.5456 108.77C88.9011 110.679 90.4755 110.338 90.4755 109.026C90.4755 107.714 90.4755 106.664 90.0737 105.091C89.862 104.262 89.3216 102.53 91.266 102.53C92.6628 102.53 92.7734 103.808 92.979 105.994" stroke="#4D4B4B" stroke-width="2" stroke-linecap="round"/>
<path d="M97.4473 122.891C94.1832 128.32 91.5895 126.871 87.3928 129.586" stroke="#4D4B4B" stroke-width="2" stroke-linecap="round"/>
<path d="M83.2032 123.449C83.5899 121.376 85.5234 120.092 86.3935 116.341C86.6925 115.052 87.0703 113.873 88.2305 113.971" stroke="#4D4B4B" stroke-width="2" stroke-linecap="round"/>
<path d="M126.214 200.864C127.328 204.642 130.627 211.945 134.907 210.938C139.186 209.93 145.606 206.321 148.28 204.642C150.955 202.543 152.961 198.849 139.587 200.864C138.696 200.864 136.913 200.108 136.913 197.086" stroke="#4D4B4B" stroke-width="2" stroke-linecap="round"/>
<path d="M47.408 154.995C41.5055 156.593 35.1112 165.87 32.6519 170.309C36.3409 169.865 44.7027 167.512 48.6377 161.653C52.5726 155.794 49.4574 154.773 47.408 154.995Z" fill="#4D4B4B"/>
<path d="M44.7383 139.391C38.8182 139.997 34.5602 154.825 32.6519 161.662C36.8927 158.146 45.2472 151.113 47.2828 148.768C51.0996 144.373 50.4635 138.805 44.7383 139.391Z" fill="#4D4B4B"/>
<path d="M26.5004 134.65C23.2748 139.894 30.2642 147.772 33.49 153.016L33.49 139.894C33.4899 135.233 28.8295 130.864 26.5004 134.65Z" fill="#4D4B4B"/>
<path d="M33.4903 164.451C29.1034 158.32 19.7313 147.693 17.3385 154.233C14.3474 162.408 32.8921 164.451 33.4903 164.451Z" fill="#4D4B4B"/>
<path d="M33.4897 172.819L32.6519 150.505" stroke="#4D4B4B" stroke-width="2" stroke-linecap="round"/>
<path d="M26.7384 191.27C28.249 187.658 30.4974 178.389 30.9672 173.935H37.3106C37.5926 179.424 40.4821 187.297 41.8919 191.27C46.1206 200.659 42.4793 206.678 39.7775 208.243H29.5576C22.8619 206.076 24.6238 196.326 26.7384 191.27Z" stroke="#4D4B4B" stroke-width="2"/>
<path d="M64.2124 119.265C64.6505 117.445 65.3951 113.167 64.8695 110.619" stroke="#4D4B4B" stroke-width="2" stroke-linecap="round"/>
<path d="M94.375 119.265C95.4465 118.604 98.393 117.282 97.5894 114.802" stroke="#4D4B4B" stroke-width="2" stroke-linecap="round"/>
<path d="M95.2134 121.776C95.8651 121.528 97.1684 120.66 97.727 120.102" stroke="#4D4B4B" stroke-width="2" stroke-linecap="round"/>
<path d="M91.582 137.535C92.7923 134.792 93.5371 132.514 94.2353 126.657" stroke="#4D4B4B" stroke-width="2" stroke-linecap="round"/>
<path d="M126.934 148.832C118.459 132.712 94.8422 135.905 88.2305 139.377C105.002 141.096 109.27 152.745 109.946 158.179C112.471 179.733 119.112 192.367 122.118 195.99C124.597 197.801 135.312 197.672 135.867 193.273C137.896 177.197 131.815 158.115 126.934 148.832Z" fill="#4D4B4B"/>
<path d="M143.833 220.257C144.204 217.849 137.302 218.472 132.431 219.313C131.141 219.535 129.888 220.711 130.47 221.884C130.907 222.766 131.784 222.981 132.767 223.008C137.023 223.127 143.456 222.713 143.833 220.257Z" fill="#4D4B4B"/>
<path d="M3.21974 32.0594C1.46583 33.3038 -0.895957 36.7611 4.4959 38.5306C8.60822 39.8802 12.0957 39.1977 13.3005 39.1696" stroke="#4D4B4B" stroke-width="2" stroke-linecap="round"/>
<path d="M19.0936 40.3657C13.6477 40.8136 7.28546 35.3126 3.60277 31.1974C2.74844 30.2427 3.10373 28.7608 4.1574 28.0313C6.91614 26.1214 9.13818 23.3994 10.5341 21.2812C11.2221 20.2371 12.6745 19.9031 13.6401 20.6982C22.1902 27.7383 23.6864 33.5511 23.4255 35.912C23.4141 36.0148 23.391 36.1124 23.3565 36.21C22.9411 37.3825 21.664 39.6013 19.4156 40.3039C19.311 40.3366 19.2028 40.3567 19.0936 40.3657Z" stroke="#4D4B4B" stroke-width="2" stroke-linecap="round"/>
<ellipse cx="7.39622" cy="1.39557" rx="7.39622" ry="1.39557" transform="matrix(0.695401 -0.718622 0.719525 0.694467 0.674805 28.5354)" fill="#4D4B4B"/>
<path d="M170.362 93.8828C168.081 101.693 163.882 118.038 165.335 120.939" stroke="#4D4B4B" stroke-width="2" stroke-linecap="round"/>
<path d="M167.221 95.4122L168.879 94.377C169.72 93.8525 170.817 94.0221 171.46 94.7757L172.426 95.9077C173.072 96.666 174.179 96.8324 175.02 96.2978L182.77 91.3724C184.166 90.2567 184.143 89.2445 183.608 88.5831C182.847 87.6434 180.925 87.1924 179.288 87.0711C178.447 87.0086 177.72 87.5884 177.477 88.397L177.326 88.903C177.148 89.4932 176.711 89.9762 176.125 90.1668C172.157 91.4574 169.505 90.6389 168.25 89.3779C167.949 89.0756 167.883 88.6268 167.981 88.2116C168.196 87.2998 167.558 86.4045 166.622 86.4136C164.318 86.436 161.544 86.9478 161.544 88.8621C161.544 90.7945 163.333 93.3724 164.798 95.0849C165.403 95.7918 166.432 95.9049 167.221 95.4122Z" fill="#4D4B4B"/>
<path d="M155.121 113.687C156.238 101.749 159.823 91.8841 161.545 88.5835C162.103 87.3283 163.444 86.4636 164.896 86.3521C166.712 86.2126 180.588 86.2332 184.028 88.0256C187.24 89.6992 186.681 89.6992 185.843 99.0432C185.173 106.518 182.492 116.476 181.235 120.521C180.397 122.752 175.342 124.649 170.203 122.752C163.779 120.381 165.734 121.636 159.869 120.521C155.177 119.628 154.925 115.779 155.121 113.687Z" stroke="#4D4B4B" stroke-width="2"/>
<path d="M186.402 93.4645C185.471 92.4882 183.357 91.512 182.352 95.417C181.095 100.298 178.28 111.2 178.023 112.571C177.604 114.802 177.464 120.66 179.699 117.173C181.486 114.384 183.562 102.669 184.167 97.0905" stroke="#4D4B4B" stroke-width="2" stroke-linecap="round"/>
<ellipse cx="0.698414" cy="1.11579" rx="0.698414" ry="1.11579" transform="matrix(0.973411 0.229067 -0.229632 0.973278 170.915 96.1235)" fill="#4D4B4B"/>
<ellipse cx="0.698414" cy="1.11579" rx="0.698414" ry="1.11579" transform="matrix(0.973411 0.229067 -0.229632 0.973278 169.337 101.833)" fill="#4D4B4B"/>
<ellipse cx="0.698414" cy="1.11579" rx="0.698414" ry="1.11579" transform="matrix(0.973411 0.229067 -0.229632 0.973278 167.941 108.526)" fill="#4D4B4B"/>
<ellipse cx="0.698414" cy="1.11579" rx="0.698414" ry="1.11579" transform="matrix(0.973411 0.229067 -0.229632 0.973278 166.824 115.5)" fill="#4D4B4B"/>
<path d="M99.542 106.435L101.218 99.043" stroke="#4D4B4B" stroke-width="2" stroke-linecap="round"/>
<path d="M101.776 108.945L112.669 102.948" stroke="#4D4B4B" stroke-width="2" stroke-linecap="round"/>
<path d="M102.753 112.292H109.875" stroke="#4D4B4B" stroke-width="2" stroke-linecap="round"/>
<path d="M100.52 65.2931C104.104 64.3633 112.222 64.0379 116.02 70.1743C120.768 77.8448 121.047 80.0762 127.052 78.6816" stroke="#4D4B4B" stroke-width="2" stroke-linecap="round"/>
<path d="M131.306 61.4417C135.542 61.9531 145.186 61.3022 149.878 54.608C154.571 47.9137 158.35 47.4489 159.654 48.0532" stroke="#4D4B4B" stroke-width="2" stroke-linecap="round"/>
<path d="M59.743 40.6075C60.1154 37.8183 59.4079 31.5703 53.5986 28.8926" stroke="#4D4B4B" stroke-width="2" stroke-linecap="round"/>
<path d="M5.97998 81.1918C6.58511 77.8447 10.1135 71.3736 19.3859 72.2662C28.6583 73.1587 33.8624 69.4769 35.3054 67.5244" stroke="#4D4B4B" stroke-width="2" stroke-linecap="round"/>
<path d="M41.5632 41.1658C40.0701 41.6956 37.5671 43.501 39.5004 46.4843C41.4194 49.4456 43.1486 46.9496 43.7889 45.2983C43.7986 45.2736 43.8044 45.2488 43.8068 45.2223C43.8956 44.2354 43.6757 42.456 42.0938 42.9386C40.4906 43.4277 41.0721 44.6911 41.5632 45.2617" stroke="#4D4B4B" stroke-width="2" stroke-linecap="round"/>
<path d="M109.152 33.6348C107.659 34.1646 105.156 35.97 107.089 38.9533C109.008 41.9146 110.738 39.4186 111.378 37.7673C111.387 37.7426 111.393 37.7178 111.396 37.6913C111.484 36.7043 111.265 34.925 109.683 35.4076C108.079 35.8967 108.661 37.1601 109.152 37.7306" stroke="#4D4B4B" stroke-width="2" stroke-linecap="round"/>
</svg>
